<svg width="14" height="14" viewBox="0 0 14 14" fill="none" xmlns="http://www.w3.org/2000/svg">
<path d="M6.99992 3.66671C6.63325 3.66671 6.33325 3.96671 6.33325 4.33337V6.33337H4.33325C3.96659 6.33337 3.66659 6.63337 3.66659 7.00004C3.66659 7.36671 3.96659 7.66671 4.33325 7.66671H6.33325V9.66671C6.33325 10.0334 6.63325 10.3334 6.99992 10.3334C7.36659 10.3334 7.66659 10.0334 7.66659 9.66671V7.66671H9.66659C10.0333 7.66671 10.3333 7.36671 10.3333 7.00004C10.3333 6.63337 10.0333 6.33337 9.66659 6.33337H7.66659V4.33337C7.66659 3.96671 7.36659 3.66671 6.99992 3.66671ZM6.99992 0.333374C3.31992 0.333374 0.333252 3.32004 0.333252 7.00004C0.333252 10.68 3.31992 13.6667 6.99992 13.6667C10.6799 13.6667 13.6666 10.68 13.6666 7.00004C13.6666 3.32004 10.6799 0.333374 6.99992 0.333374ZM6.99992 12.3334C4.05992 12.3334 1.66659 9.94004 1.66659 7.00004C1.66659 4.06004 4.05992 1.66671 6.99992 1.66671C9.93992 1.66671 12.3333 4.06004 12.3333 7.00004C12.3333 9.94004 9.93992 12.3334 6.99992 12.3334Z" fill="#9873FF"/>
</svg>
